<?xml version="1.0" encoding="utf-8"?>
<!DOCTYPE svg PUBLIC "-//W3C//DTD SVG 1.1//EN" "http://www.w3.org/Graphics/SVG/1.1/DTD/svg11.dtd">
<svg version="1.1" id="Layer_1" xmlns="http://www.w3.org/2000/svg" xmlns:xlink="http://www.w3.org/1999/xlink" x="0px" y="0px"
width="204px" height="26px" viewBox="0 0 204 26" style="enable-background:new 0 0 204 26;" xml:space="preserve">
<polygon id="Outer_Edge" style="fill:#0B0E1E;" points="26,10.9 23.4,10.9 19.2,10.9 19.2,19.3 6.7,19.3 6.7,6.8 15.1,6.8 
15.1,6.8 15.1,2.6 15.1,0.1 0,0.1 0,26 26,26 26,10.9 	"/>
<rect id="Small_Square" x="10.9" y="10.9" style="fill:#D21317;" width="4.2" height="4.2"/>
<rect id="Large_Square" x="19.2" y="0.1" style="fill:#D21317;" width="6.7" height="6.7"/>
<path style="fill:#0B0E1E;" d="M44.4,23.8c-1.1,1.2-2.6,2.2-5,2.2h-6.6V0h6.6c2.5,0,4,0.9,5,2.1C46.3,4.3,46.3,8,46.3,13
C46.3,18,46.3,21.7,44.4,23.8z M41.3,4.8c-0.4-0.6-1.1-1.1-2.1-1.1h-2.4v18.6h2.4c1,0,1.7-0.4,2.1-1.1c0.8-1.2,0.9-3.8,0.9-8.3
C42.2,8.5,42.1,6,41.3,4.8z"/>
<path style="fill:#0B0E1E;" d="M61.1,23.8C60,25,58.6,26,56.2,26c-2.4,0-3.9-0.9-4.9-2.1c-1.9-2.1-1.9-5.9-1.9-10.8
c0-5,0-8.7,1.9-10.8C52.3,0.9,53.7,0,56.2,0c2.4,0,3.9,0.9,4.9,2.1C63,4.3,63,8,63,13C63,18,63,21.7,61.1,23.8z M58.1,4.6
c-0.4-0.6-1-1-1.9-1c-1,0-1.5,0.4-1.9,1c-0.8,1.2-0.9,3.8-0.9,8.4c0,4.6,0.1,7.2,0.9,8.4c0.4,0.6,0.9,1,1.9,1c1,0,1.6-0.4,1.9-1
c0.7-1.2,0.9-3.8,0.9-8.4C58.9,8.3,58.8,5.8,58.1,4.6z"/>
<path style="fill:#0B0E1E;" d="M77.9,24.1c-1.2,1.3-2.8,1.9-4.8,1.9c-1.9,0-3.6-0.6-4.8-1.9c-1.1-1.2-1.8-2.8-1.8-4.7V0h4v19.5
c0,1.8,1.2,2.7,2.5,2.7c1.4,0,2.5-0.9,2.5-2.7V0h4v19.3C79.7,21.3,79,22.9,77.9,24.1z"/>
<path style="fill:#0B0E1E;" d="M95.5,24.3c-1.1,1.1-2.7,1.6-5.1,1.6H84V0h6.5c2.4,0,4,0.5,5.1,1.6c1.2,1.2,1.6,2.9,1.6,5.5
c0,1.7-0.2,3.2-1.3,4.4c-0.4,0.4-0.8,0.7-1.3,0.9c0.5,0.2,1,0.5,1.4,0.9c1.3,1.4,1.4,3.4,1.4,5C97.2,21.2,96.8,23.1,95.5,24.3z
M90,3.7h-1.9v7H90c2.2,0,3.1-1.1,3.1-3.5C93.1,4.6,92.2,3.7,90,3.7z M90,14.2h-2v8.1h2c2.2,0,3.1-1,3.1-4
C93.1,15.4,92.2,14.2,90,14.2z"/>
<path style="fill:#0B0E1E;" d="M101.2,26V0h4.1v22.3h6.8V26H101.2z"/>
<path style="fill:#0B0E1E;" d="M115.2,26V0h10.9v3.7h-6.8v7.4h5.9v3.7h-5.9v7.5h6.8V26H115.2z"/>
<path style="fill:#0B0E1E;" d="M137.7,3.7V26h-4.1V3.7h-4.3V0h12.8v3.7H137.7z"/>
<path style="fill:#0B0E1E;" d="M154.2,26V14.6h-5.1V26H145V0h4.1V11h5.1V0h4.1V26H154.2z"/>
<path style="fill:#0B0E1E;" d="M162.7,26V0h4.1V26H162.7z"/>
<path style="fill:#0B0E1E;" d="M181.3,26l-6.1-15.4V26h-4.1V0h3.6l6.1,15.4V0h4.1V26H181.3z"/>
<path style="fill:#0B0E1E;" d="M199.6,26l-4.2-10.7l-2,4V26h-4.1V0h4.1v12.2L199.1,0h4.1L198,10.8l6,15.2H199.6z"/>
</svg>
